<svg width="540" height="540" viewBox="0 0 540 540" fill="none" xmlns="http://www.w3.org/2000/svg">
<rect width="540" height="540" rx="36.75" fill="#EEF1F8"/>
<g filter="url(#filter0_d_12_260)">
<path d="M157.052 482.288C145.433 482.128 134.302 482.613 123.568 478.465C116.149 475.598 109.484 471.617 103.566 466.485C84.5944 450.035 70.1017 430.013 57.994 408.183C46.3526 387.195 36.853 365.34 30.4934 342.097C25.5337 323.971 22.6198 305.637 20.2349 286.988C17.7762 267.761 19.2545 248.942 22.3357 230.403C30.0863 183.77 53.6921 146.753 94.219 121.59C108.889 112.482 124.683 105.402 141.453 100.687C160.458 95.3448 179.788 92.4696 199.408 90.225C219.25 87.9549 238.993 88.8428 258.749 88.9771C272.452 89.0703 286.147 91.3577 299.831 92.7974C309.041 93.7664 318.286 94.6158 327.2 97.3798C329.094 97.967 330.321 96.8351 331.673 95.8236C337.654 91.3481 342.981 86.0521 349.37 82.0747C359.558 75.7319 370.315 70.5192 381.478 66.2456C395.92 60.717 410.846 57.1579 426.439 57.0013C435.191 56.9133 443.252 61.408 442.452 73.2726C440.935 95.7742 434.471 116.667 423.383 136.162C421.59 139.313 421.707 141.069 424.637 143.112C444.87 157.219 456.849 177.656 467.419 199.16C468.809 201.988 470.135 204.872 471.801 207.536C475.801 213.929 482.82 212.549 488.791 213.925C495.83 215.547 503.335 215.03 509.942 218.667C516.516 222.286 520.126 227.962 520.184 235.254C520.397 262.417 520.324 289.584 520.229 316.749C520.208 322.746 517.442 327.617 512.786 331.381C501.322 340.648 487.838 346.507 475.107 353.629C462.785 360.521 450.427 367.354 437.99 374.035C430.576 378.017 427.801 384.905 425.213 392.279C417.395 414.557 407.102 435.551 391.514 453.559C381.489 465.14 369.875 474.664 355.229 479.917C349.362 482.021 343.161 482.303 337.044 482.309C277.213 482.373 217.382 482.311 157.052 482.288ZM135.998 200.876C157.996 200.876 179.994 200.866 201.991 200.88C214.219 200.888 218.196 204.795 218.226 216.884C218.267 234.049 218.216 251.215 218.292 268.38C218.319 274.615 219.542 275.276 224.884 272.631C239.017 265.635 253.143 258.622 267.368 251.816C270.375 250.378 270.905 248.241 270.894 245.395C270.856 235.896 270.845 226.396 270.917 216.898C270.98 208.66 274.152 205.669 282.623 205.651C293.311 205.628 295.919 207.794 296.037 216.955C296.115 222.953 296.038 228.954 296.11 234.952C296.152 238.457 297.639 239.43 300.886 237.659C305.412 235.192 309.987 232.798 314.653 230.608C317.745 229.157 319.231 227.168 318.946 223.618C318.653 219.974 318.712 216.285 318.855 212.626C319.088 206.675 323.352 203.11 330.421 202.73C337.309 202.36 341.551 205.338 342.049 211.513C342.399 215.863 343.938 216.447 347.329 214.206C348.158 213.658 349.095 213.275 349.982 212.814C359.246 207.994 364.807 201.277 364.068 189.909C363.399 179.625 364.11 169.255 364.114 158.923C364.117 150.798 360.642 147.366 352.596 147.366C281.602 147.367 210.607 147.374 139.613 147.382C138.447 147.382 137.269 147.307 136.116 147.442C130.413 148.106 126.449 151.925 126.34 157.628C126.13 168.623 126.092 179.629 126.379 190.62C126.546 197.039 129.172 199.678 135.998 200.876ZM218.228 344.501C218.228 359.317 218.155 374.134 218.26 388.95C218.31 396.169 221.851 399.596 229.081 399.648C239.235 399.721 249.392 399.756 259.545 399.629C268.114 399.521 270.883 396.634 270.887 388.14C270.906 352.015 270.904 315.89 270.904 279.764C270.904 273.119 269.737 272.261 263.628 275.325C249.992 282.165 236.506 289.303 222.885 296.172C219.478 297.891 218.139 300.199 218.191 304.047C218.372 317.196 218.243 330.35 218.228 344.501ZM298.143 260.83C295.753 262.587 296.051 265.183 296.049 267.66C296.037 283.13 296.018 298.599 296.055 314.069C296.081 325.3 297.526 326.697 308.706 326.627C316.863 326.576 318.898 324.693 318.921 316.756C318.976 296.795 318.962 276.834 318.933 256.874C318.931 255.118 319.341 253.162 317.033 251.411C310.892 253.825 304.755 256.951 298.143 260.83ZM354.865 293.38C358.044 292.275 358.977 289.938 358.888 286.735C358.749 281.739 358.902 276.736 358.9 271.737C358.895 260.738 358.862 249.738 358.859 238.739C358.858 235.596 358 232.668 354.352 232.921C347.088 233.425 341.527 239.834 341.475 247.249C341.385 259.903 341.155 272.554 341.945 285.206C342.488 293.899 345.684 296.296 354.865 293.38Z" fill="#282A5A"/>
</g>
<defs>
<filter id="filter0_d_12_260" x="7" y="53" width="525.322" height="449.337" filterUnits="userSpaceOnUse" color-interpolation-filters="sRGB">
<feFlood flood-opacity="0" result="BackgroundImageFix"/>
<feColorMatrix in="SourceAlpha" type="matrix" values="0 0 0 0 0 0 0 0 0 0 0 0 0 0 0 0 0 0 127 0" result="hardAlpha"/>
<feOffset dy="8"/>
<feGaussianBlur stdDeviation="6"/>
<feComposite in2="hardAlpha" operator="out"/>
<feColorMatrix type="matrix" values="0 0 0 0 0 0 0 0 0 0 0 0 0 0 0 0 0 0 0.2 0"/>
<feBlend mode="normal" in2="BackgroundImageFix" result="effect1_dropShadow_12_260"/>
<feBlend mode="normal" in="SourceGraphic" in2="effect1_dropShadow_12_260" result="shape"/>
</filter>
</defs>
</svg>
